<svg width="81" height="81" viewBox="0 0 81 81" fill="none" xmlns="http://www.w3.org/2000/svg">
<path d="M32.4023 9.63281L38.0737 31.4221" stroke="#D16D56" stroke-width="2.62163" stroke-linecap="round" stroke-linejoin="round"/>
<path d="M42.9336 49.5664L48.605 71.3557" stroke="#D16D56" stroke-width="2.62163" stroke-linecap="round" stroke-linejoin="round"/>
<path d="M18.1211 18.1172L33.8597 33.8558" stroke="#D16D56" stroke-width="2.62163" stroke-linecap="round" stroke-linejoin="round"/>
<path d="M47.1445 47.1338L62.9542 62.9435" stroke="#D16D56" stroke-width="2.62163" stroke-linecap="round" stroke-linejoin="round"/>
<path d="M9.63281 32.3965L31.4269 38.0679" stroke="#D16D56" stroke-width="2.62163" stroke-linecap="round" stroke-linejoin="round"/>
<path d="M49.5664 42.9268L71.3605 48.5981" stroke="#D16D56" stroke-width="2.62163" stroke-linecap="round" stroke-linejoin="round"/>
<path d="M9.64062 48.5952L31.4299 42.9238" stroke="#D16D56" stroke-width="2.62163" stroke-linecap="round" stroke-linejoin="round"/>
<path d="M49.5664 38.0679L71.3557 32.3965" stroke="#D16D56" stroke-width="2.62163" stroke-linecap="round" stroke-linejoin="round"/>
<path d="M18.0508 62.9435L33.8605 47.1338" stroke="#D16D56" stroke-width="2.62163" stroke-linecap="round" stroke-linejoin="round"/>
<path d="M47.1445 33.8554L62.7977 18.2021" stroke="#D16D56" stroke-width="2.62163" stroke-linecap="round" stroke-linejoin="round"/>
<path d="M32.4023 71.3605L38.0737 49.5664" stroke="#D16D56" stroke-width="2.62163" stroke-linecap="round" stroke-linejoin="round"/>
<path d="M42.9336 31.423L48.605 9.62891" stroke="#D16D56" stroke-width="2.62163" stroke-linecap="round" stroke-linejoin="round"/>
<path d="M32.4045 9.63344C34.0594 9.19244 35.7239 8.57598 37.3788 8.40527C37.4594 10.065 38.8299 11.3832 40.5038 11.3832C42.1777 11.3832 43.5528 10.0602 43.6619 8.40527C45.3406 8.57598 46.9955 9.03595 48.6078 9.62396C50.2438 10.2214 51.8371 10.9517 53.3687 11.644C53.2596 11.8574 53.1743 12.0803 53.1221 12.3032C52.7854 13.6262 53.3497 15.063 54.5921 15.7838C56.0432 16.6231 57.8878 16.1631 58.784 14.769C58.9737 14.9018 59.1586 15.0393 59.3436 15.1815C60.5101 16.0588 61.6861 17.0878 62.8005 18.2022C64.0666 19.4683 65.2473 20.8387 66.2384 22.2139C66.1246 22.285 66.0155 22.3656 65.9159 22.4462C64.7731 23.4041 64.4459 25.0733 65.2141 26.4105C66.0535 27.8615 67.8839 28.3926 69.3539 27.6244L69.5104 27.9754C70.1268 29.3885 70.9567 30.8632 71.3645 32.3949C71.8102 34.0546 72.4219 35.7095 72.5926 37.3692C70.9377 37.4498 69.6147 38.8202 69.6147 40.4941C69.6147 42.1681 70.9377 43.5432 72.5974 43.6191C72.4314 45.2788 72.0568 46.9859 71.5589 48.6503C71.0325 50.4001 70.3734 52.1072 69.6668 53.6721C68.1921 52.9086 66.3664 53.435 65.5271 54.886C64.6878 56.337 65.1477 58.1817 66.5419 59.0779C65.5793 60.4199 64.3558 61.7618 63.0328 63.0185C61.6719 64.313 60.1971 65.5175 58.7888 66.5275C57.8925 65.1286 56.0432 64.6687 54.5921 65.508C53.1363 66.3473 52.6147 68.1777 53.3735 69.6525C51.8655 70.3306 50.2675 70.8996 48.6078 71.3453C46.9481 71.7911 45.2931 72.4028 43.6335 72.5735C43.5528 70.9186 42.1824 69.5956 40.5085 69.5956C38.8346 69.5956 37.4594 70.9186 37.3836 72.5783C35.6812 72.4076 34.0073 71.9903 32.3713 71.4592C31.2095 71.0798 30.0714 70.6483 28.9571 70.2073C28.5161 70.0318 28.0751 69.8421 27.6436 69.6477C28.4023 68.173 27.8759 66.3473 26.4249 65.508C25.3247 64.8726 24.0017 64.9816 23.0344 65.674C22.7214 65.8968 22.4464 66.1814 22.2282 66.5228C20.8151 65.508 19.3783 64.2656 18.0601 62.9379C17.1117 61.98 16.2202 60.9747 15.4425 59.9741C15.2149 59.6849 14.9967 59.3861 14.7786 59.0874C16.1775 58.1911 16.6375 56.3418 15.7981 54.8907C15.1153 53.71 13.7781 53.141 12.512 53.3828C12.2227 53.4397 11.9334 53.5393 11.6584 53.6815C10.9756 52.1641 10.0888 50.2531 9.64307 48.5934C9.20206 46.9385 8.58561 45.274 8.4149 43.6191C10.0746 43.5385 11.3929 42.1681 11.3929 40.4941C11.3929 39.0621 10.4302 37.8529 9.11671 37.483C8.88909 37.4166 8.652 37.3787 8.41016 37.3692C8.58087 35.681 9.06455 34.0214 9.66678 32.4043C10.1931 30.9912 10.8048 29.6113 11.3739 28.2741C11.464 28.0607 11.5588 27.8473 11.6537 27.6339C13.1284 28.3926 14.9541 27.8663 15.7934 26.4153C16.5568 25.0922 16.2439 23.4373 15.12 22.4747C15.0157 22.3846 14.8972 22.2992 14.7786 22.2186C15.7602 20.8577 16.9362 19.4825 18.2071 18.2069C19.3831 17.0262 20.6444 15.926 21.9105 14.9919C22.0101 14.916 22.1144 14.8449 22.214 14.769C23.1102 16.1679 24.9596 16.6278 26.4106 15.7885C27.838 14.9634 28.3738 13.1804 27.6293 11.644C29.1468 10.9612 30.7353 10.0792 32.395 9.63344H32.4045Z" stroke="#D16D56" stroke-width="2.62163" stroke-linecap="round" stroke-linejoin="round"/>
<path d="M49.5715 38.0667C49.7802 38.8396 49.8892 39.6552 49.8892 40.4993C49.8892 41.3434 49.7802 42.1542 49.5715 42.9319C49.14 44.5489 48.2864 45.9905 47.1389 47.1428C45.9913 48.2903 44.545 49.1439 42.928 49.5754C42.1551 49.7841 41.3395 49.8931 40.4954 49.8931C39.6513 49.8931 38.8404 49.7841 38.0628 49.5754C36.4458 49.1439 34.9995 48.2903 33.8519 47.1428C32.7043 45.9952 31.8508 44.5489 31.4193 42.9319C31.2106 42.159 31.1016 41.3434 31.1016 40.4993C31.1016 39.6552 31.2106 38.8444 31.4193 38.0667C31.8508 36.4497 32.7043 35.0034 33.8519 33.8558C34.9995 32.7083 36.4458 31.8547 38.0628 31.4232C38.8357 31.2145 39.6513 31.1055 40.4954 31.1055C41.3395 31.1055 42.1503 31.2145 42.928 31.4232C44.545 31.8547 45.9913 32.7083 47.1389 33.8558C48.2864 35.0034 49.14 36.4497 49.5715 38.0667Z" stroke="#D16D56" stroke-width="2.62163" stroke-linecap="round" stroke-linejoin="round"/>
<path d="M40.4969 43.6237C38.7708 43.6237 37.3672 42.22 37.3672 40.494C37.3672 38.7679 38.7708 37.3643 40.4969 37.3643C42.223 37.3643 43.6266 38.7679 43.6266 40.494C43.6266 42.22 42.223 43.6237 40.4969 43.6237Z" stroke="#D16D56" stroke-width="2.62163" stroke-linecap="round" stroke-linejoin="round"/>
<path d="M62.3178 72.2284C56.12 76.4961 48.604 78.9951 40.5 78.9951C19.2228 78.9951 2 61.7771 2 40.4951C2 19.2132 19.2181 1.99988 40.5 1.99988C61.7819 1.99988 79 19.2179 79 40.4999C79 48.6039 76.501 56.1199 72.2332 62.3176" stroke="#D16D56" stroke-width="2.62163" stroke-linecap="round" stroke-linejoin="round"/>
</svg>
