<svg width="85" height="93" viewBox="0 0 85 93" fill="none" xmlns="http://www.w3.org/2000/svg">
<path d="M48.0475 0C45.8561 0 43.8921 1.21975 42.9204 3.19065L37.2765 14.6232C36.9113 15.3537 36.2152 15.8637 35.409 15.9808L22.7911 17.8139C20.6204 18.1309 18.8493 19.6194 18.174 21.7074C17.4986 23.7955 18.0499 26.042 19.6211 27.5719L28.752 36.4685C29.3378 37.0405 29.6065 37.8605 29.4687 38.6668L27.3118 51.2295C26.9396 53.3934 27.8148 55.5366 29.5859 56.8252C31.3569 58.1139 33.6655 58.2793 35.6088 57.2594L46.8967 51.326C47.6203 50.947 48.4817 50.947 49.2053 51.326L60.4862 57.2594C61.3339 57.7004 62.2435 57.9209 63.1531 57.9209C64.3315 57.9209 65.5099 57.5488 66.5092 56.8183C68.2802 55.5297 69.1554 53.3865 68.7833 51.2226L66.6263 38.6599C66.4885 37.8536 66.7573 37.0336 67.343 36.4616L76.4739 27.565C78.0451 26.0351 78.5964 23.7886 77.9211 21.7005C77.2457 19.6125 75.4747 18.124 73.3039 17.807L60.693 15.9739C59.8867 15.8568 59.1838 15.3468 58.8254 14.6163L53.1884 3.18376C52.2098 1.22664 50.2458 0 48.0544 0H48.0475ZM55.9104 16.0497C56.7443 17.7381 58.3499 18.9096 60.2175 19.1783L72.8353 21.0114C73.7932 21.1492 74.5444 21.7832 74.8407 22.6998C75.137 23.6163 74.9027 24.5673 74.2136 25.2426L65.0827 34.1392C63.7389 35.4555 63.1187 37.3437 63.4357 39.2043L65.5926 51.7671C65.758 52.7181 65.3859 53.6277 64.6072 54.1928C63.8285 54.7579 62.843 54.8268 61.9954 54.3788L50.7144 48.4455C49.8806 48.0044 48.9709 47.7908 48.0544 47.7908C47.1379 47.7908 46.2282 48.0113 45.3944 48.4455L34.1065 54.3788C33.252 54.8268 32.2803 54.7579 31.4947 54.1928C30.716 53.6277 30.3439 52.7181 30.5093 51.7671L32.6663 39.2043C32.9833 37.3506 32.3699 35.4555 31.0192 34.1392L21.8883 25.2426C21.1923 24.5673 20.9649 23.6163 21.2612 22.6998C21.5576 21.7832 22.3087 21.1492 23.2666 21.0114L35.8845 19.1783C37.7451 18.9096 39.3577 17.7381 40.1915 16.0497L45.8354 4.61714C46.2627 3.74884 47.0965 3.232 48.0613 3.232C49.0261 3.232 49.8599 3.74884 50.2872 4.61714L55.9242 16.0497H55.9311H55.9104Z" fill="#D16D56"/>
<path d="M79.8444 74.0808L47.4969 89.3931C46.8215 89.7101 46.0566 89.7997 45.333 89.6343L15.9832 83.1772C15.6317 83.1014 15.2665 83.1428 14.9426 83.2944L8.87829 86.168C8.07202 86.547 7.72746 87.5187 8.10647 88.325C8.48549 89.1313 9.45716 89.4827 10.2634 89.0968L15.8247 86.4643L44.6301 92.8043C45.0987 92.9077 45.5673 92.9559 46.0428 92.9559C47.0145 92.9559 47.9861 92.7423 48.8751 92.3219L81.2226 77.0096C84.5166 75.4521 85.9225 71.5035 84.365 68.2094C82.8076 64.9154 78.8589 63.5096 75.5649 65.067L53.5818 75.4728C53.5336 75.3625 53.5129 75.2454 53.4578 75.1351C52.748 73.626 51.4869 72.4889 49.9157 71.9307L36.5191 67.1413C36.4226 67.1068 36.3261 67.0655 36.2297 67.0172L26.451 62.3036C23.1156 60.698 19.291 60.6842 15.9556 62.2692L0.925795 69.3809C0.119519 69.76 -0.225044 70.7316 0.153975 71.5379C0.532993 72.3442 1.49777 72.6887 2.31094 72.3097L17.3407 65.198C19.794 64.0333 22.5988 64.0471 25.0521 65.2255L34.8307 69.9391C35.0306 70.0356 35.2373 70.1183 35.4441 70.1941L48.8406 74.9835C49.5987 75.2523 50.2051 75.8036 50.5428 76.5272C50.8873 77.2508 50.9287 78.0639 50.653 78.822C50.3843 79.5731 49.833 80.1795 49.1094 80.5241C48.3858 80.8687 47.5727 80.91 46.8146 80.6344L34.562 76.2515C33.7212 75.9552 32.7909 76.3893 32.4946 77.2301C32.1914 78.0708 32.6324 79.0011 33.4732 79.2974L45.7258 83.6803C46.4149 83.9215 47.1247 84.0455 47.8345 84.0455C48.7442 84.0455 49.6538 83.8457 50.5014 83.4391C52.0106 82.7293 53.1477 81.4682 53.7059 79.897C53.823 79.5593 53.8988 79.2148 53.9608 78.8702L76.9638 67.982C78.6453 67.1895 80.6575 67.9062 81.45 69.5877C82.2425 71.2691 81.5258 73.2814 79.8444 74.0739V74.0808Z" fill="#D16D56"/>
</svg>
