<svg width="86" height="88" viewBox="0 0 86 88" fill="none" xmlns="http://www.w3.org/2000/svg">
<path d="M50.1448 53.5956H15.9799C14.6688 53.5956 13.7642 54.9321 14.2724 56.1466C17.352 63.4848 24.6037 68.6377 33.0598 68.6377C41.5159 68.6377 48.7625 63.4848 51.8472 56.1466C52.3554 54.9372 51.4559 53.5956 50.1397 53.5956H50.1448Z" stroke="#D16D56" stroke-width="2.55106" stroke-linecap="round" stroke-linejoin="round"/>
<path d="M16.0234 40.9367C16.0234 37.6996 18.6507 35.0723 21.8878 35.0723C25.1249 35.0723 27.7522 37.6996 27.7522 40.9367" stroke="#D16D56" stroke-width="2.55106" stroke-linecap="round" stroke-linejoin="round"/>
<path d="M38.3789 40.9367C38.3789 37.6996 41.0062 35.0723 44.2433 35.0723C47.4804 35.0723 50.1077 37.6996 50.1077 40.9367" stroke="#D16D56" stroke-width="2.55106" stroke-linecap="round" stroke-linejoin="round"/>
<path d="M51.0902 73.5612C58.9823 67.9306 64.125 58.697 64.125 48.264C64.125 31.1079 50.2162 17.2041 33.0651 17.2041C15.8784 17.199 2.03055 31.0266 2.00006 48.2081C1.97973 58.5496 7.02088 67.7172 14.7757 73.3732C15.6701 74.0237 15.9496 75.2382 15.3906 76.1987C13.8152 78.9073 11.6758 81.7328 8.75885 84.3855C7.82888 85.2341 8.59115 86.7739 9.83111 86.5503C14.2015 85.7626 21.0822 83.9179 27.1346 79.6187C27.7546 79.1766 28.527 79.0038 29.2791 79.0953C30.514 79.2478 31.7743 79.324 33.0498 79.324C37.6387 79.324 41.9938 78.328 45.917 76.5392" stroke="#D16D56" stroke-width="2.55106" stroke-linecap="round" stroke-linejoin="round"/>
<path d="M59.3716 64.7754C65.302 68.8206 71.9185 70.589 76.1669 71.3513C77.4069 71.5749 78.1691 70.0351 77.2392 69.1864C74.3273 66.5337 72.1828 63.7083 70.6074 60.9997C70.0535 60.0443 70.333 58.8297 71.2223 58.1742C78.9822 52.5181 84.0183 43.3506 83.9979 33.0091C83.9675 15.8225 70.1196 2 52.938 2C49.0758 2 45.3864 2.70637 41.9766 3.99715" stroke="#D16D56" stroke-width="2.55106" stroke-linecap="round" stroke-linejoin="round"/>
<path d="M36.6184 6.63965C32.0854 9.44988 28.3249 13.3883 25.7383 18.0686" stroke="#D16D56" stroke-width="2.55106" stroke-linecap="round" stroke-linejoin="round"/>
</svg>
