<svg width="76" height="76" viewBox="0 0 76 76" fill="none" xmlns="http://www.w3.org/2000/svg">
<path fill-rule="evenodd" clip-rule="evenodd" d="M63.8709 33.0327C62.1776 32.5405 60.4434 32.6987 58.8146 33.5131L57.5784 34.1283V25.211C57.5784 23.5471 56.8636 22.0472 55.7387 20.9984C66.7769 18.5846 72.7003 19.5396 73.5615 21.6136C74.2646 23.2951 72.1144 27.2851 63.8709 33.0327ZM67.5796 37.2101C67.5796 37.3156 67.5386 37.38 67.439 37.421L35.0215 51.4239C33.3517 52.1445 31.4065 51.5001 30.4866 49.924L26.7545 43.4616H26.7955L31.301 47.1644C32.508 48.1605 34.1309 48.3421 35.5253 47.6507L59.834 35.5755C61.1406 34.9251 62.4881 34.8841 63.8298 35.4583L67.4331 36.9992C67.5327 37.0402 67.5737 37.1046 67.5737 37.2101H67.5796ZM48.1923 48.2483L48.6669 60.019C48.6728 60.0541 48.7314 60.0717 48.7372 60.0248L52.0007 46.5961L48.1923 48.2425V48.2483ZM55.2699 64.3546V45.1841L54.6548 45.4478L50.9753 60.5638C50.7175 61.6302 49.786 62.3508 48.7197 62.3508C47.4483 62.3508 46.4288 61.3782 46.3761 60.1068L45.9308 49.2151L35.953 53.5273C33.5274 54.5701 30.7034 53.8905 29.0219 51.8164C26.2799 52.6484 23.4676 53.3925 20.7256 53.9901V64.3487C20.7256 66.2529 22.2724 67.8055 24.1824 67.8055H51.819C53.7173 67.8055 55.2758 66.2529 55.2758 64.3487L55.2699 64.3546ZM49.9559 73.5648H46.2765C46.1944 73.5648 46.13 73.4945 46.13 73.4183V70.108H50.1082V73.4183C50.1082 73.4945 50.0379 73.5648 49.9617 73.5648H49.9559ZM29.8714 73.4183C29.8714 73.4945 29.8011 73.5648 29.725 73.5648H26.0456C25.9635 73.5648 25.8991 73.4945 25.8991 73.4183V70.108H29.8773V73.4183H29.8714ZM2.43404 51.1368C1.39701 48.6233 6.57045 42.6121 18.4172 35.7337V52.1328C8.99605 53.9608 3.30116 53.2402 2.43404 51.1368ZM42.9955 41.37L46.546 39.6064L34.9863 36.22L34.957 36.2785L42.9955 41.37ZM24.1824 21.7601C22.2724 21.7601 20.7256 23.3069 20.7256 25.2169V51.6524C22.9052 51.1661 25.2605 50.5568 27.7739 49.8068L24.4988 44.1354C24.2586 43.7311 24.2 43.2624 24.323 42.8113C24.5222 42.0437 25.0437 41.8035 25.6179 41.4754C26.4674 40.9833 27.5162 41.0712 28.272 41.6922L32.7775 45.3892C33.2813 45.811 33.9258 45.8813 34.5176 45.5884L40.5874 42.571L33.7383 38.2296C32.7365 37.6027 32.3732 36.3664 32.8595 35.2942C33.3458 34.2221 34.5117 33.683 35.6484 34.017L49.5926 38.1007L55.2758 35.2767V25.2169C55.2758 23.3127 53.7232 21.7601 51.819 21.7601H24.1824ZM33.7325 7.65763H42.2631V19.4575H33.7325V7.65763ZM31.0608 2.30256H44.9348V5.35507H31.0608V2.30256ZM75.6883 20.7348C73.251 14.8758 58.5978 17.8522 52.194 19.4692C52.0651 19.4575 51.9479 19.4575 51.819 19.4575H44.5657V7.65763H45.0285C46.2472 7.65763 47.2432 6.66161 47.2432 5.44295V2.21468C47.2432 0.99016 46.2413 0 45.0285 0H30.9729C29.7543 0 28.7582 0.996019 28.7582 2.21468V5.43709C28.7582 6.66161 29.7601 7.65177 30.9729 7.65177H31.4299V19.4517H24.1824C21.0069 19.4517 18.4231 22.0355 18.4231 25.211V33.0796C12.5056 36.4192 7.69537 39.8173 4.47881 42.9284C0.717373 46.561 -0.688772 49.6193 0.313106 52.0156C2.37545 56.9782 13.2848 55.4373 18.4231 54.4647V64.3546C18.4231 67.3309 20.6905 69.7858 23.5907 70.0846V73.4242C23.5907 74.7718 24.6921 75.8732 26.0456 75.8732H29.725C31.0784 75.8732 32.1799 74.7718 32.1799 73.4242V70.1139H43.8216V73.4242C43.8216 74.7718 44.9231 75.8732 46.2765 75.8732H49.9559C51.3093 75.8732 52.4108 74.7718 52.4108 73.4242V70.0846C55.2992 69.7858 57.5784 67.3309 57.5784 64.3546V44.194L68.3588 39.5361C70.4036 38.6514 70.4094 35.7571 68.3471 34.8783L66.4078 34.0521C69.513 31.7906 71.921 29.6404 73.5557 27.6483C75.7645 24.9591 76.4734 22.6331 75.6942 20.7348H75.6883Z" fill="#D16D56"/>
</svg>
