<svg width="57" height="66" viewBox="0 0 57 66" fill="none" xmlns="http://www.w3.org/2000/svg">
<path d="M25.4699 34.2341L36.3813 23.3227C36.8779 22.8261 37.6856 22.8261 38.1823 23.3227C38.6789 23.8194 38.6789 24.6271 38.1823 25.1237L26.2575 37.0485C26.0167 37.2893 25.6957 37.4197 25.3595 37.4197C25.3344 37.4197 25.3094 37.4197 25.2843 37.4197C24.9231 37.3997 24.587 37.2241 24.3612 36.9381L18.7224 29.7993C18.286 29.2475 18.3813 28.4448 18.9331 28.0084C19.4849 27.5719 20.2876 27.6672 20.7241 28.2191L25.4749 34.2341H25.4699ZM28.5 12.7676C38.107 12.7676 45.9181 20.5836 45.9181 30.1856C45.9181 39.7876 38.102 47.6037 28.5 47.6037C18.898 47.6037 11.0819 39.7876 11.0819 30.1856C11.0819 20.5836 18.898 12.7676 28.5 12.7676ZM28.5 15.3161C20.2977 15.3161 13.6304 21.9883 13.6304 30.1856C13.6304 38.3829 20.3027 45.0602 28.5 45.0602C36.6973 45.0602 43.3696 38.388 43.3696 30.1906C43.3696 21.9933 36.6973 15.3161 28.5 15.3161ZM57 8.78428V32.5686C57 36.4064 56.0769 40.2743 54.2559 44.0569C52.6254 47.4482 50.3177 50.699 47.393 53.7191C42.1054 59.1873 35.1672 63.4615 28.8311 65.1622C28.7207 65.1923 28.6104 65.2074 28.5 65.2074C28.3896 65.2074 28.2793 65.1923 28.1689 65.1622C21.8328 63.4615 14.8896 59.1873 9.60702 53.7191C6.68227 50.699 4.37458 47.4431 2.74415 44.0569C0.923077 40.2743 0 36.4064 0 32.5686V8.77926C0 8.11706 0.511706 7.5602 1.17391 7.51003C9.00502 6.88796 15.6171 3.2107 19.786 0.235786C20.0017 0.0802676 20.2625 0 20.5234 0H36.4766C36.7425 0 36.9983 0.0852843 37.214 0.235786C41.3829 3.2107 47.995 6.88796 55.8261 7.51003C56.4883 7.56522 57 8.11706 57 8.77926V8.78428ZM54.4515 9.93813C48.2809 9.21572 41.9599 6.67726 36.0702 2.5485H20.9298C15.0451 6.67726 8.72408 9.21572 2.5485 9.93813V32.5686C2.5485 47.2876 17.7742 59.5736 28.5 62.6137C39.2257 59.5736 54.4515 47.2876 54.4515 32.5686V9.93813Z" fill="#D16D56"/>
</svg>
