<svg width="72" height="87" viewBox="0 0 72 87" fill="none" xmlns="http://www.w3.org/2000/svg">
<path d="M70.0374 49.1708H60.0521C59.4113 45.7801 56.4278 43.2104 52.8568 43.2104C52.3095 43.2104 51.7688 43.2704 51.2482 43.3906C49.7931 41.535 47.5504 40.4203 45.1609 40.4203C44.1063 40.4203 43.065 40.6339 42.1106 41.0478C41.1895 40.0065 40.0414 39.2256 38.7599 38.745C39.454 36.1953 40.6221 33.8591 42.0705 31.8233C44.8205 33.4186 47.2434 34.2129 49.3926 34.2129C50.2804 34.2129 51.1214 34.0794 51.9223 33.8057C56.3276 32.3173 58.2366 27.2378 60.0855 22.3253C61.4071 18.8077 62.7754 15.1633 64.8512 14.0019C65.3852 13.7016 65.6588 13.0808 65.512 12.4868C65.3652 11.8927 64.8379 11.4656 64.2238 11.4522C50.0468 11.0851 42.3242 16.2113 39.8345 21.1372C38.3727 24.0273 38.4795 27.1511 40.1015 29.8877C39.3739 30.8889 38.7131 31.9435 38.1258 33.0381C37.2314 28.8464 35.8898 24.9484 34.1677 21.5977C34.1543 21.5777 34.1477 21.5577 34.1343 21.5377C36.4304 18.8945 37.0445 15.5505 35.8163 12.2866C33.8673 7.11368 26.7454 1.17989 12.6151 0.00514151C12.0011 -0.0482559 11.4337 0.318851 11.2201 0.892874C11.0065 1.4669 11.2068 2.11434 11.7074 2.47477C13.6497 3.85643 14.6109 7.62095 15.5453 11.2653C16.8469 16.3514 18.1952 21.6044 22.4136 23.5601C23.4615 24.0473 24.6162 24.2876 25.8911 24.2876C27.6265 24.2876 29.5889 23.8338 31.7915 22.9193C33.8807 27.0243 35.4292 32.1571 36.1768 37.8172C36.1434 37.944 36.11 38.0708 36.07 38.2043C35.9765 38.2043 35.8831 38.1977 35.7896 38.1977C33.3133 38.1977 31.0172 39.2589 29.4287 41.0945C28.4341 40.6406 27.3528 40.407 26.2382 40.407C23.8486 40.407 21.5993 41.5217 20.1509 43.3772C19.6236 43.2571 19.0896 43.197 18.5423 43.197C14.9713 43.197 11.9877 45.7668 11.347 49.1575H1.36163C0.607396 49.1575 0 49.7649 0 50.5191C0 70.2028 16.0126 86.222 35.7029 86.222C55.3932 86.222 71.4057 70.2094 71.4057 50.5191C71.4057 49.7649 70.7983 49.1575 70.0441 49.1575L70.0374 49.1708ZM23.5616 21.0905C20.518 19.6754 19.3299 15.0565 18.1885 10.5912C17.481 7.83454 16.8002 5.17802 15.6788 3.10887C26.3717 4.72414 31.8182 9.42979 33.2599 13.241C34.0142 15.2501 33.8006 17.2392 32.6592 18.9612C30.4766 15.5171 27.9002 13.0074 25.1168 11.6191C24.4427 11.2854 23.6217 11.559 23.288 12.2332C22.9542 12.9073 23.2279 13.7283 23.902 14.062C26.3183 15.2635 28.5409 17.5128 30.4432 20.5365C27.5464 21.6778 25.237 21.8714 23.5616 21.0971V21.0905ZM42.2574 22.3586C44.0996 18.7276 50.0267 14.636 60.833 14.1888C59.4981 16.1245 58.5303 18.6942 57.5291 21.3574C55.9071 25.676 54.2318 30.1413 51.048 31.2159C49.1991 31.8367 46.7628 31.3094 43.7993 29.6541C46.1554 27.0376 48.9254 25.122 51.4751 24.1808C52.1827 23.9205 52.5431 23.1396 52.2828 22.4321C52.0225 21.7246 51.2415 21.3641 50.534 21.6244C47.3902 22.7858 44.4333 24.8883 41.9837 27.5582C41.3029 25.8762 41.383 24.0807 42.2574 22.352V22.3586ZM18.5423 45.9336C19.123 45.9336 19.6836 46.0404 20.2176 46.2473C20.845 46.4943 21.5659 46.2473 21.8996 45.6533C22.7874 44.0981 24.4494 43.1369 26.2382 43.1369C27.246 43.1369 28.2139 43.4373 29.0415 43.998C29.3486 44.2049 29.7224 44.2783 30.0895 44.2049C30.4499 44.1315 30.7703 43.9112 30.9638 43.5975C32.0184 41.9221 33.8206 40.9276 35.7963 40.9276C37.772 40.9276 39.5208 41.8954 40.5821 43.5241C40.9892 44.1515 41.8302 44.3317 42.4643 43.9245C43.2653 43.4106 44.1997 43.1369 45.1609 43.1369C46.9497 43.1369 48.6117 44.1048 49.4994 45.6533C49.8332 46.2407 50.554 46.4943 51.1815 46.2473C51.7154 46.0404 52.2828 45.9336 52.8568 45.9336C54.9193 45.9336 56.668 47.2953 57.2487 49.1642H14.157C14.7377 47.2953 16.4865 45.9336 18.5489 45.9336H18.5423ZM35.0621 52.5616C35.4893 53.2424 35.9365 53.9432 36.4571 54.6574C38.0123 56.7733 38.2593 57.6076 38.2993 57.868C38.0791 57.9948 37.5651 58.155 37.2047 58.2684C35.3157 58.8558 31.8182 59.9438 31.7782 65.4571C31.2175 67.92 30.6501 68.5274 30.0561 69.1682C29.2284 70.0559 28.5543 70.9236 28.0937 73.2064C27.9869 73.5801 27.5931 73.9806 27.2394 74.0674C27.0925 74.1074 27.0325 74.0741 26.9457 73.974C26.9257 73.9539 26.9056 73.9339 26.8856 73.9139C26.1247 73.173 25.9845 72.3253 25.791 70.7634C25.5307 68.721 25.1702 65.931 22.4002 62.5936C21.2655 61.1185 21.2589 59.857 21.2455 58.5287C21.2322 56.76 21.2121 54.5573 18.1818 52.8019C17.6746 52.5082 17.194 52.2078 16.7267 51.8941H34.6416C34.7818 52.1077 34.9219 52.3346 35.0621 52.5616ZM35.6962 83.5054C17.9682 83.5054 3.46416 69.4485 2.74997 51.8941H12.2814C13.6764 53.1423 15.1248 54.1902 16.8135 55.1647C18.4955 56.1392 18.5022 56.9468 18.5156 58.5488C18.5289 60.1173 18.5423 62.0663 20.251 64.2756C20.2643 64.289 20.271 64.3023 20.2844 64.3157C22.5604 67.0456 22.8408 69.2016 23.081 71.1038C23.288 72.7258 23.5016 74.4011 24.95 75.8295C25.5373 76.4636 26.3049 76.7973 27.1259 76.7973C27.3795 76.7973 27.6399 76.764 27.9002 76.6972C29.2351 76.3635 30.4032 75.1821 30.7436 73.8271C30.7436 73.8071 30.7569 73.7871 30.7569 73.7604C31.104 72.0183 31.4978 71.5911 32.0451 71.0037C32.7994 70.1961 33.7338 69.1882 34.4681 65.8842C34.4881 65.7841 34.5014 65.684 34.5014 65.5839C34.4814 61.9529 36.1167 61.4456 38.0123 60.8582C39.1604 60.5044 40.4619 60.0973 40.8958 58.7624C41.3296 57.4408 40.7022 55.8322 38.6531 53.0355C38.3794 52.6617 38.1191 52.2746 37.8721 51.8874H54.7524C54.4787 52.4014 54.1116 52.9354 53.7245 53.5094C52.4163 55.445 50.781 57.8479 51.2415 61.3521C51.7021 64.883 54.2919 68.9346 59.1377 73.6936C53.1572 79.7409 44.8605 83.4921 35.7029 83.4921L35.6962 83.5054ZM60.9665 71.6845C56.6747 67.4528 54.3119 63.8618 53.9381 61.0051C53.611 58.5287 54.7591 56.8334 55.9739 55.0446C56.648 54.05 57.3422 53.0288 57.7093 51.8874H68.6424C68.3354 59.4031 65.4986 66.278 60.9665 71.6845Z" fill="#D16D56"/>
</svg>
